<svg width="326" height="327" viewBox="0 0 326 327" fill="none" xmlns="http://www.w3.org/2000/svg">
<path d="M163 325.819C253.022 325.819 326 252.882 326 162.91C326 72.9372 253.022 0 163 0C72.9776 0 0 72.9372 0 162.91C0 252.882 72.9776 325.819 163 325.819Z" fill="#A9F3FF"/>
<path d="M163 325.819C253.022 325.819 326 252.882 326 162.91C326 72.9372 253.022 0 163 0C72.9776 0 0 72.9372 0 162.91C0 252.882 72.9776 325.819 163 325.819Z" fill="white" fill-opacity="0.16"/>
<mask id="mask0_10:20" style="mask-type:alpha" maskUnits="userSpaceOnUse" x="0" y="0" width="326" height="326">
<path d="M163 325.819C253.022 325.819 326 252.882 326 162.91C326 72.9372 253.022 0 163 0C72.9776 0 0 72.9372 0 162.91C0 252.882 72.9776 325.819 163 325.819Z" fill="white"/>
</mask>
<g mask="url(#mask0_10:20)">
<path fill-rule="evenodd" clip-rule="evenodd" d="M15.9661 326.056V324.108C16.3559 322.561 16.7693 321.05 17.1473 319.586C17.8087 317.225 18.482 314.864 19.167 312.704C19.4269 311.878 19.6867 311.063 19.9348 310.26C20.1238 309.67 20.3128 309.08 20.5017 308.537C21.0215 306.979 21.5412 305.468 22.0609 304.016C23.2342 300.757 24.4154 297.759 25.6044 295.02C25.8996 294.324 26.1949 293.639 26.4902 292.978L26.6674 292.588C27.3052 291.124 27.9549 289.755 28.6045 288.457C30.451 284.589 32.641 280.895 35.1481 277.419C35.219 277.313 35.3017 277.218 35.3607 277.124C36.0104 276.274 36.6364 275.506 37.2388 274.845L37.3096 274.763C37.8766 274.125 38.4908 273.511 39.0814 272.897C42.8904 269.068 47.0817 265.639 51.5899 262.662L52.96 261.753C53.653 261.297 54.3617 260.848 55.0861 260.408C56.8342 259.322 58.6296 258.271 60.484 257.244C63.5432 255.544 66.7087 253.939 69.9333 252.416C73.8311 250.574 77.7998 248.874 81.7449 247.269L84.4261 246.206C85.1938 245.899 85.9734 245.604 86.7884 245.321C90.2374 244.01 93.6628 242.806 97.0054 241.685C103.478 239.513 109.608 237.695 115.018 236.196C120.616 234.649 125.412 233.445 128.944 232.595C128.927 232.759 128.927 232.926 128.944 233.091C129.546 236.904 137.212 240.174 148.008 241.685C152.56 242.316 157.15 242.635 161.744 242.641H162.571C167.167 242.635 171.757 242.316 176.308 241.685C187.187 240.15 194.852 236.868 195.384 233.032C195.396 232.887 195.396 232.74 195.384 232.595C198.927 233.457 203.77 234.661 209.404 236.219C214.79 237.707 220.885 239.525 227.322 241.685C231.409 243.054 235.591 244.553 239.854 246.206C242.021 247.041 244.182 247.918 246.339 248.839L248.808 249.889L250.792 250.763C255.245 252.77 259.627 254.918 263.785 257.244C266.383 258.684 268.911 260.183 271.321 261.753L271.994 262.202C273.175 262.958 274.356 263.737 275.396 264.563C278.887 267.036 282.164 269.801 285.187 272.827C285.825 273.464 286.439 274.113 287.03 274.774C287.752 275.572 288.43 276.407 289.062 277.277V277.348C289.605 278.08 290.172 278.883 290.727 279.709C292.532 282.487 294.165 285.373 295.617 288.35C296.314 289.767 297.011 291.266 297.731 292.872C298.18 293.887 298.629 294.937 299.078 296.024C299.42 296.838 299.751 297.676 300.094 298.538C300.763 300.238 301.437 302.029 302.113 303.909C302.633 305.361 303.153 306.872 303.673 308.431C304.271 310.264 304.874 312.169 305.48 314.144C305.728 314.982 305.988 315.832 306.236 316.694C306.484 317.556 306.767 318.536 307.027 319.48C307.44 320.944 308.571 324.509 308.937 326.056C303.545 326.046 20.997 326.093 15.9661 326.056Z" fill="#B590CB"/>
<g style="mix-blend-mode:soft-light" opacity="0.4">
<g style="mix-blend-mode:soft-light" opacity="0.4">
<path d="M209.463 236.207C206.546 240.67 201.668 244.211 195.407 246.832C190.053 248.991 184.451 250.478 178.73 251.259C167.787 252.8 156.683 252.8 145.74 251.259C139.986 250.47 134.352 248.971 128.967 246.796C122.743 244.176 117.9 240.634 114.995 236.172C120.593 234.625 125.388 233.421 128.92 232.571C128.903 232.735 128.903 232.902 128.92 233.067C129.522 236.88 137.188 240.15 147.984 241.661C152.536 242.293 157.126 242.612 161.721 242.617H162.548C167.144 242.612 171.734 242.293 176.285 241.661C187.163 240.127 194.829 236.845 195.36 233.008C195.372 232.863 195.372 232.717 195.36 232.571C198.998 233.445 203.829 234.649 209.463 236.207Z" fill="white"/>
</g>
</g>
<path fill-rule="evenodd" clip-rule="evenodd" d="M219.671 134.392C219.67 134.383 219.67 134.373 219.668 134.365C220.448 125.724 221.653 100.78 211.542 84.3351C199.282 64.4908 179.19 58.6827 162.193 58.966C145.173 58.6827 125.081 64.4908 112.821 84.3351C102.722 100.709 103.927 125.688 104.719 134.294V134.362C101.881 133.416 98.7872 133.604 96.0843 134.885C89.895 137.824 87.2019 147.646 93.1077 156.629C97.5824 163.455 105.133 164.673 110.891 163.358C111.104 163.912 111.315 164.468 111.524 165.022L111.524 165.023L111.525 165.024C111.702 165.493 111.878 165.958 112.054 166.416L112.786 168.246C116.507 177.742 121.984 186.453 128.932 193.922C131.926 197.085 135.276 199.894 138.913 202.291C145.443 206.712 153.104 209.17 160.988 209.374H163.351C171.236 209.174 178.898 206.716 185.427 202.291C188.181 200.476 190.769 198.425 193.164 196.163C190.768 198.442 188.175 200.509 185.415 202.339C178.887 206.763 171.224 209.221 163.339 209.422H160.977C153.092 209.217 145.431 206.76 138.901 202.339C135.264 199.941 131.914 197.133 128.92 193.969V233.079C129.522 236.892 137.164 240.15 147.984 241.673C152.536 242.305 157.126 242.623 161.721 242.629H162.548C167.144 242.623 171.733 242.305 176.284 241.673C187.163 240.103 194.829 236.857 195.36 233.02V193.972L195.419 193.91C202.363 186.444 207.837 177.737 211.554 168.246L212.286 166.416C212.695 165.412 213.08 164.375 213.454 163.349C219.217 164.679 226.794 163.473 231.279 156.629C237.138 147.646 234.492 137.824 228.279 134.92C225.585 133.641 222.501 133.453 219.671 134.392ZM108.51 156.016C108.746 156.833 108.989 157.641 109.239 158.443C108.978 157.664 108.719 156.877 108.463 156.086C108.274 155.461 108.049 154.682 107.908 154.15H107.908L107.907 154.149C107.766 153.618 107.577 152.911 107.482 152.51C107.445 152.349 107.414 152.213 107.383 152.074V152.073C107.337 151.864 107.289 151.648 107.211 151.329C107.146 151.063 107.09 150.788 107.034 150.514C106.977 150.239 106.921 149.966 106.856 149.7C106.726 149.169 106.62 148.637 106.514 148.083L106.443 147.717C106.313 147.008 106.183 146.288 106.065 145.556C105.971 145.045 105.888 144.526 105.817 143.998C105.805 143.937 105.791 143.874 105.778 143.813C105.727 143.575 105.675 143.335 105.675 143.101C105.569 142.357 105.463 141.602 105.368 140.834C105.258 139.993 105.163 139.178 105.085 138.391C105.014 138.06 104.978 137.73 104.978 137.399C104.978 137.399 105.061 137.175 104.978 136.998C104.934 136.901 104.93 136.746 104.927 136.602C104.925 136.479 104.923 136.366 104.896 136.301C104.859 136.214 104.859 136.198 104.855 136.115C104.853 136.062 104.85 135.981 104.837 135.841C104.833 135.804 104.829 135.768 104.825 135.73C104.829 135.745 104.833 135.758 104.837 135.77C104.863 135.844 104.861 135.888 104.858 135.94C104.855 136.001 104.851 136.076 104.896 136.23C104.941 136.385 104.944 136.501 104.947 136.616C104.949 136.712 104.951 136.809 104.978 136.927C105.037 137.187 105.037 137.328 105.037 137.328C105.047 137.46 105.064 137.593 105.081 137.725C105.106 137.923 105.132 138.122 105.132 138.32C105.209 139.086 105.306 139.872 105.395 140.595L105.415 140.763C105.51 141.531 105.616 142.286 105.723 143.03C105.739 143.133 105.754 143.237 105.769 143.341V143.342C105.797 143.538 105.826 143.735 105.864 143.927C105.935 144.455 106.018 144.974 106.112 145.486C106.23 146.217 106.36 146.938 106.49 147.646L106.561 148.012C106.614 148.289 106.673 148.555 106.732 148.82H106.732C106.791 149.086 106.851 149.352 106.904 149.629C106.964 149.945 107.044 150.296 107.117 150.616C107.172 150.857 107.222 151.081 107.258 151.258C107.341 151.671 107.435 152.061 107.53 152.439L107.604 152.728C107.712 153.154 107.81 153.538 107.955 154.08C108.132 154.741 108.321 155.39 108.51 156.016ZM104.76 135.102C104.765 135.175 104.77 135.247 104.775 135.314C104.753 135.123 104.734 134.925 104.731 134.719C104.742 134.847 104.751 134.977 104.76 135.102Z" fill="#FAB2A7"/>
<g style="mix-blend-mode:multiply" opacity="0.15">
<g style="mix-blend-mode:multiply" opacity="0.15">
<path fill-rule="evenodd" clip-rule="evenodd" d="M192.998 196.342V230.93C163.563 231.391 141.759 216.245 131.353 207.19V196.318C133.694 198.554 136.237 200.569 138.948 202.339C145.48 206.756 153.141 209.214 161.024 209.422H163.386C171.27 209.214 178.93 206.756 185.462 202.339C188.148 200.568 190.67 198.561 192.998 196.342Z" fill="#7C3830"/>
</g>
</g>
<path fill-rule="evenodd" clip-rule="evenodd" d="M126.64 194.916C119.796 187.376 114.372 178.655 110.636 169.178L109.904 167.337C109.725 166.876 109.55 166.416 109.379 165.957C108.493 166.09 107.599 166.169 106.703 166.192C100.426 166.328 94.5277 163.2 91.1233 157.928C87.7834 153.11 86.6896 147.084 88.1231 141.401C89.0766 137.636 91.6077 134.465 95.0683 132.701C97.3486 131.615 99.8627 131.179 102.339 131.413C101.59 120.116 101.656 98.3551 111.026 83.1547C125.365 59.6154 149.295 56.4398 162.288 56.6759C175.174 56.4516 199.057 59.6154 213.609 83.1665C222.965 98.3349 223.042 120.141 222.304 131.445C224.674 131.277 227.068 131.72 229.248 132.76C232.71 134.527 235.243 137.695 236.205 141.46C237.628 147.145 236.53 153.168 233.193 157.987C229.786 163.219 223.917 166.321 217.672 166.192C216.817 166.188 215.963 166.134 215.115 166.03C214.958 166.451 214.799 166.873 214.637 167.289L213.893 169.155C210.129 178.71 204.649 187.495 197.723 195.075V230.74C200.848 231.51 205.069 232.576 209.983 233.941C216.137 235.641 222.208 237.482 228.019 239.442C232.52 240.953 236.654 242.44 240.658 243.999C242.961 244.896 245.099 245.758 247.213 246.655L249.056 247.446L249.682 247.717L251.702 248.603C256.592 250.798 260.903 252.947 264.907 255.166C267.73 256.736 270.246 258.236 272.596 259.77C272.737 259.856 272.893 259.963 273.055 260.072C273.137 260.129 273.221 260.186 273.305 260.242C274.403 260.951 275.573 261.753 276.754 262.603C280.355 265.154 283.733 268.005 286.853 271.127C287.502 271.776 288.152 272.472 288.778 273.157C289.404 273.842 290.136 274.739 290.904 275.778L290.999 275.896C291.379 276.413 291.718 276.911 292.05 277.398C292.286 277.743 292.519 278.083 292.759 278.422C294.604 281.277 296.28 284.237 297.779 287.288C298.452 288.669 299.149 290.168 299.928 291.904C300.389 292.942 300.85 294.005 301.298 295.115C301.606 295.835 301.913 296.59 302.22 297.369L302.326 297.664C302.999 299.353 303.684 301.206 304.381 303.107C304.901 304.57 305.432 306.105 305.952 307.675C306.279 308.662 306.594 309.669 306.914 310.696L306.915 310.7V310.702C307.195 311.601 307.481 312.516 307.783 313.448L308.055 314.357C308.055 314.357 310.086 321.534 310.452 322.927L311.18 326.07C307.209 326.056 17.1318 326.056 12.9928 326.056C13.2054 325.194 16.2023 314.026 16.8756 311.89L17.6315 309.446C17.8323 308.832 18.0213 308.265 18.2221 307.675C18.7418 306.105 19.2733 304.57 19.7931 303.107C20.9742 299.813 22.1554 296.744 23.3365 293.981C23.6318 293.273 23.9271 292.576 24.2342 291.904L24.4114 291.502L24.5114 291.272H24.5116C25.0694 289.988 25.638 288.68 26.3957 287.288C28.3004 283.295 30.5616 279.482 33.152 275.896L33.2701 275.742C33.3027 275.682 33.3424 275.627 33.3882 275.577C34.1205 274.609 34.782 273.806 35.3962 273.145L35.4789 273.039C35.7166 272.776 35.9723 272.516 36.2394 272.247C36.5825 271.899 36.9443 271.533 37.3096 271.115C41.2358 267.212 45.5497 263.719 50.1843 260.691C50.6213 260.384 51.1056 260.065 51.5899 259.758C52.2749 259.298 53.0073 258.838 53.7632 258.377C55.405 257.362 57.2004 256.311 59.232 255.178C62.1849 253.525 65.4212 251.884 68.823 250.279C72.7208 248.426 76.7486 246.678 80.7881 245.073C81.6858 244.707 82.5953 244.341 83.493 243.999C83.7867 243.887 84.0551 243.783 84.3115 243.682C84.8387 243.477 85.3149 243.292 85.8553 243.101C89.0208 241.921 92.3989 240.74 96.1432 239.442C101.907 237.506 107.837 235.7 114.274 233.917C118.44 232.772 122.559 231.692 126.64 230.691V194.916ZM193.045 199.608V232.033C192.985 232.248 192.952 232.472 192.951 232.701C192.809 233.726 190.969 235.224 187.3 236.617C184.555 237.65 180.805 238.623 176.001 239.3C171.56 239.92 167.08 240.232 162.595 240.233H161.78C157.291 240.232 152.808 239.92 148.362 239.3C137.33 237.754 131.849 234.625 131.33 232.807V199.505C133.323 201.26 135.439 202.869 137.661 204.322C142.75 207.751 148.485 210.057 154.481 211.117C156.604 211.492 158.758 211.712 160.929 211.771L160.947 211.768L161.024 211.771H163.327C164.651 211.738 165.969 211.645 167.277 211.493C174.278 210.718 181.004 208.253 186.868 204.286C189.029 202.863 191.093 201.3 193.045 199.608ZM219.363 134.513L217.247 134.46L217.246 134.473L217.212 134.471C217.046 136.065 216.905 137.033 216.905 137.033C216.9 137.099 216.9 137.166 216.905 137.234L216.834 138.131C216.645 139.831 216.468 141.295 216.231 142.853C215.995 144.411 215.735 145.922 215.464 147.351C215.334 148.071 215.18 148.815 215.027 149.499L214.985 149.686L214.963 149.788C214.937 149.903 214.912 150.017 214.887 150.132V150.134L214.886 150.137V150.139C214.783 150.609 214.68 151.079 214.566 151.541V151.648C214.456 152.125 214.339 152.564 214.225 152.993V152.995C214.18 153.16 214.137 153.325 214.093 153.489V153.619C213.935 154.252 213.766 154.804 213.586 155.378C213.547 155.503 213.508 155.63 213.469 155.756L213.467 155.761C213.352 156.135 213.234 156.514 213.112 156.892L213.066 157.019C212.534 158.754 211.932 160.561 211.211 162.544V162.662C210.928 163.456 210.629 164.25 210.34 165.02L210.339 165.022C210.266 165.213 210.196 165.402 210.125 165.589L209.392 167.407C205.812 176.512 200.583 184.877 193.968 192.084C193.867 192.157 193.773 192.238 193.683 192.328C190.818 195.367 187.607 198.06 184.116 200.355C177.976 204.541 170.758 206.866 163.327 207.049H161.024C160.683 207.039 160.342 207.026 160.002 207.009C152.948 206.626 146.125 204.329 140.271 200.355C136.787 198.063 133.58 195.372 130.715 192.34C130.642 192.262 130.564 192.19 130.482 192.124C123.848 184.908 118.605 176.529 115.018 167.407L114.864 167.026C114.671 166.55 114.485 166.089 114.298 165.613C114.054 164.976 113.81 164.318 113.566 163.661L113.565 163.658L113.564 163.655C113.442 163.326 113.321 162.999 113.199 162.674L112.987 162.556C112.16 160.254 111.368 157.834 110.624 155.378C110.541 155.094 110.447 154.757 110.357 154.437L110.356 154.435L110.356 154.434C110.256 154.075 110.161 153.737 110.093 153.513C109.996 153.198 109.9 152.805 109.794 152.371L109.794 152.37C109.757 152.22 109.719 152.066 109.679 151.907C109.63 151.717 109.591 151.537 109.547 151.338H109.547V151.337C109.507 151.155 109.464 150.958 109.408 150.727C109.289 150.243 109.171 149.735 109.077 149.216V149.098C108.959 148.614 108.852 148.118 108.758 147.587L108.687 147.256C108.634 146.945 108.579 146.634 108.523 146.315L108.523 146.314C108.453 145.92 108.381 145.515 108.309 145.084C108.226 144.624 108.144 144.14 108.085 143.644C108.085 143.629 108.094 143.624 108.103 143.62C108.122 143.612 108.14 143.605 108.085 143.502C108.002 143.349 108.002 143.183 108.002 143.03V142.723C107.944 142.329 107.889 141.92 107.834 141.508L107.834 141.507C107.789 141.168 107.743 140.827 107.695 140.492C107.589 139.748 107.494 138.957 107.411 138.131C107.403 138.021 107.389 137.91 107.375 137.798C107.352 137.609 107.329 137.419 107.329 137.234C107.335 137.159 107.335 137.084 107.329 137.009L107.199 135.923V135.829V135.498C107.191 135.403 107.177 135.298 107.162 135.183C107.13 134.944 107.093 134.66 107.093 134.318C107.092 134.072 107.054 133.834 106.983 133.608C106.297 125.612 105.16 101.275 114.794 85.6692C128.117 64.1012 150.157 61.2327 162.193 61.4216C174.111 61.2327 196.128 64.1012 209.44 85.6692C219.291 101.63 217.885 126.833 217.212 134.176V134.33L219.363 134.513ZM216.7 161.478C221.698 161.905 226.531 159.567 229.295 155.378C231.849 151.706 232.708 147.117 231.657 142.77C231.068 140.32 229.454 138.24 227.228 137.057C225.58 136.263 223.729 135.992 221.924 136.278C221.844 136.991 221.778 137.463 221.747 137.647L221.676 138.532C221.476 140.409 221.275 142.074 221.039 143.549L220.976 143.94C220.755 145.324 220.506 146.881 220.247 148.271C220.106 149.051 219.952 149.806 219.787 150.562L219.75 150.733L219.749 150.736C219.601 151.412 219.478 151.971 219.326 152.58V152.698C219.289 152.849 219.252 153.001 219.215 153.151C220.797 153.069 222.271 152.263 223.188 150.939C224.326 149.379 224.511 147.319 223.673 145.58C223.322 145.032 223.48 144.304 224.027 143.951C224.575 143.599 225.305 143.758 225.657 144.305C226.902 146.67 226.823 149.511 225.45 151.804C224.078 154.096 221.609 155.509 218.936 155.532L218.983 155.555C218.851 155.554 218.718 155.549 218.585 155.541C218.473 155.942 218.356 156.339 218.239 156.724C218.038 157.385 217.873 157.904 217.672 158.471C217.379 159.425 217.056 160.426 216.7 161.478ZM92.6706 142.735C93.2569 140.287 94.8652 138.205 97.0881 137.021C98.3013 136.44 99.629 136.138 100.974 136.136C101.518 136.144 102.06 136.203 102.592 136.313V136.584C102.629 136.714 102.631 136.824 102.632 136.928C102.634 137.024 102.635 137.115 102.663 137.21C102.722 137.411 102.722 137.564 102.722 137.659C102.742 137.983 102.777 138.306 102.829 138.627C102.892 139.28 102.97 139.925 103.045 140.553L103.072 140.784L103.112 141.118C103.207 141.92 103.313 142.688 103.431 143.479V143.75L103.537 144.388C103.608 144.931 103.703 145.474 103.785 145.946C103.893 146.626 104.021 147.306 104.151 147.994L104.187 148.189L104.246 148.531C104.305 148.82 104.364 149.094 104.423 149.369C104.482 149.643 104.541 149.918 104.6 150.207C104.718 150.786 104.872 151.471 104.955 151.825C104.974 151.907 104.995 151.992 105.016 152.081L105.074 152.318C105.128 152.54 105.185 152.773 105.238 153.005V153.135L105.251 153.182C103.566 153.184 101.974 152.356 101.01 150.951C99.8813 149.391 99.7 147.338 100.537 145.604C100.889 145.056 100.73 144.327 100.183 143.974C99.6347 143.623 98.9057 143.782 98.5528 144.329C97.3088 146.693 97.3872 149.535 98.7597 151.827C100.132 154.12 102.601 155.533 105.274 155.555C105.474 155.559 105.675 155.553 105.875 155.536C105.943 155.769 106.01 156 106.077 156.229L106.078 156.232L106.079 156.234L106.079 156.235C106.126 156.396 106.173 156.554 106.218 156.712C106.703 158.318 107.199 159.888 107.719 161.434C102.689 161.9 97.8117 159.558 95.0329 155.343C92.4726 151.674 91.6123 147.082 92.6706 142.735ZM304.329 318.723C304.619 319.957 304.906 321.179 304.997 321.521C301.67 321.533 170.132 321.439 86.5182 321.378H86.4214L85.7596 321.377H85.5627C49.3439 321.351 22.3243 321.331 19.0109 321.33C19.568 319.317 20.4344 316.548 21.0849 314.468H21.085C21.2205 314.035 21.3465 313.631 21.4585 313.271L22.2262 310.839L22.2878 310.65L22.3715 310.393C22.5081 309.972 22.6415 309.562 22.7814 309.151C23.3011 307.604 23.809 306.105 24.3287 304.677C25.4272 301.466 26.6083 298.491 27.7895 295.799C28.073 295.126 28.3683 294.453 28.6518 293.816L28.8407 293.391C29.4077 292.081 30.0219 290.77 30.7306 289.365C32.5098 285.64 34.6249 282.083 37.0498 278.741L37.1443 278.611L37.286 278.41L37.4757 278.171C38.0343 277.467 38.5229 276.852 38.916 276.427L39.0932 276.238C39.5893 275.648 40.1799 275.058 40.7704 274.467C44.476 270.789 48.5441 267.494 52.9128 264.634L54.2593 263.749C54.9325 263.312 55.6058 262.875 56.3263 262.438C57.9209 261.447 59.6572 260.431 61.6297 259.333C64.4881 257.775 67.6182 256.181 70.9373 254.611C74.7524 252.805 78.6857 251.093 82.6544 249.523C83.2864 249.263 83.9966 248.983 84.6221 248.737L84.6251 248.736L84.6333 248.732H84.6345L84.6443 248.729L84.6693 248.718C84.9029 248.627 85.124 248.54 85.3238 248.461C86.0679 248.166 86.8239 247.871 87.5916 247.587C90.7217 246.407 94.0407 245.226 97.726 243.987C102.942 242.231 108.307 240.585 114.069 238.965C117.206 243.018 121.894 246.374 128.034 248.957C133.622 251.22 139.471 252.773 145.444 253.584C151.023 254.386 156.652 254.78 162.288 254.765C167.903 254.798 173.512 254.423 179.072 253.643C184.984 252.83 190.771 251.292 196.305 249.063C202.525 246.468 207.262 243.067 210.413 238.985C215.956 240.543 221.419 242.226 226.673 243.987C231.102 245.474 235.165 246.938 239.099 248.473C241.355 249.346 243.457 250.196 245.536 251.082L247.343 251.849L247.981 252.121L249.918 252.982C254.678 255.119 258.883 257.209 262.769 259.369C265.474 260.88 267.907 262.332 270.198 263.819L270.848 264.244C271.923 264.941 273.033 265.696 274.155 266.511C277.526 268.911 280.687 271.593 283.605 274.527L283.612 274.532C284.2 275.133 284.8 275.745 285.376 276.404C286.043 277.134 286.665 277.903 287.243 278.706L287.349 278.835C287.928 279.603 288.424 280.335 288.908 281.078C290.651 283.775 292.228 286.574 293.633 289.46C294.282 290.77 294.956 292.222 295.7 293.887C296.149 294.89 296.586 295.917 297.034 297.003C297.33 297.712 297.625 298.444 297.92 299.187L298.027 299.471C298.676 301.111 299.35 302.894 300.023 304.771C300.542 306.199 301.05 307.699 301.558 309.233C302.165 311.043 302.763 312.925 303.354 314.876L303.625 315.785C303.706 316.066 304.019 317.401 304.329 318.723ZM197.068 235.488C199.371 236.016 202.171 236.746 205.398 237.614C202.31 240.687 198.613 243.084 194.545 244.648C189.372 246.728 183.961 248.159 178.434 248.91C167.723 250.421 156.853 250.421 146.141 248.91C140.584 248.149 135.14 246.707 129.936 244.613C125.893 243.038 122.219 240.641 119.151 237.574C121.878 236.846 124.608 236.144 127.314 235.475C130.42 241.059 142.314 243.326 147.689 244.081C152.351 244.729 157.051 245.056 161.756 245.061H162.595C167.297 245.058 171.993 244.729 176.651 244.081C181.871 243.352 193.161 241.194 196.706 236.06C196.837 235.873 196.958 235.683 197.068 235.488Z" fill="black"/>
<path d="M201.978 115.69H121.659V178.256H201.978V115.69Z" fill="#FAB2A6"/>
<path d="M164.913 181.467H158.594C157.942 181.467 157.413 180.938 157.413 180.287C157.413 179.635 157.942 179.106 158.594 179.106H164.913C165.565 179.106 166.095 179.635 166.095 180.287C166.095 180.938 165.565 181.467 164.913 181.467Z" fill="black"/>
<path fill-rule="evenodd" clip-rule="evenodd" d="M177.93 158.341C177.598 167.033 170.451 173.907 161.748 173.907C153.045 173.907 145.898 167.033 145.566 158.341H177.93Z" fill="#FF6666"/>
<path fill-rule="evenodd" clip-rule="evenodd" d="M143.499 158.341C143.68 168.24 151.844 176.124 161.748 175.966C171.652 176.124 179.816 168.24 179.997 158.341C179.997 157.201 179.071 156.275 177.93 156.275H145.566C144.424 156.275 143.499 157.201 143.499 158.341ZM161.748 172.062C154.889 172.062 149.014 167.154 147.798 160.407H175.697C174.482 167.154 168.607 172.062 161.748 172.062Z" fill="black"/>
<path fill-rule="evenodd" clip-rule="evenodd" d="M172.957 169.379C169.953 172.348 165.877 173.978 161.654 173.9C157.851 173.971 154.163 172.61 151.318 170.087L151.413 169.225C151.413 169.225 155.311 162.249 161.547 166.687L161.842 166.581C162.617 166.272 163.373 165.921 164.11 165.53C169.024 163.028 172.308 168.482 172.308 168.482L172.957 169.379Z" fill="#FF6666"/>
<path fill-rule="evenodd" clip-rule="evenodd" d="M172.957 169.379C169.953 172.348 165.877 173.978 161.654 173.9C157.851 173.971 154.163 172.61 151.318 170.087L151.413 169.225C151.413 169.225 155.311 162.249 161.547 166.687L161.842 166.581C162.617 166.272 163.373 165.921 164.11 165.53C169.024 163.028 172.308 168.482 172.308 168.482L172.957 169.379Z" fill="white" fill-opacity="0.09"/>
<path fill-rule="evenodd" clip-rule="evenodd" d="M149.913 171.598C153.141 174.472 157.33 176.03 161.653 175.966C166.442 176.042 171.055 174.176 174.445 170.795C175.12 170.074 175.19 168.975 174.611 168.175L174.008 167.337C172.485 164.869 168.339 161.045 163.142 163.689C162.693 163.925 162.22 164.161 161.736 164.374C159.975 163.28 157.861 162.904 155.83 163.323C153.198 164.08 150.964 165.833 149.606 168.21C149.47 168.455 149.386 168.724 149.358 169.001L149.263 169.863C149.197 170.511 149.438 171.153 149.913 171.598ZM161.653 171.799C158.849 171.846 156.101 171.021 153.787 169.438C154.517 168.445 155.548 167.717 156.728 167.36C158.024 167.15 159.347 167.521 160.342 168.375C160.908 168.771 161.632 168.864 162.279 168.623L162.575 168.505C163.428 168.169 164.257 167.775 165.055 167.325C167.547 166.062 169.473 168.069 170.217 169.048C167.736 170.87 164.732 171.836 161.653 171.799Z" fill="black"/>
<path d="M160.437 167.891C161.066 167.233 161.801 166.681 162.61 166.262L160.437 167.891Z" fill="#F9F9F9"/>
<path d="M160.437 169.957C159.875 169.959 159.336 169.728 158.949 169.32C158.145 168.514 158.145 167.21 158.949 166.404C159.764 165.548 160.729 164.848 161.795 164.338C162.481 164.062 163.262 164.172 163.845 164.627C164.427 165.083 164.721 165.814 164.618 166.546C164.514 167.278 164.029 167.899 163.343 168.175C162.779 168.49 162.265 168.888 161.819 169.355C161.45 169.721 160.957 169.936 160.437 169.957Z" fill="black"/>
<path d="M161.787 153.213C159.207 153.249 156.781 151.99 155.326 149.86C154.706 148.903 154.981 147.623 155.94 147.004C156.899 146.385 158.178 146.66 158.799 147.617C159.518 148.552 160.634 149.095 161.813 149.084C162.993 149.072 164.098 148.508 164.799 147.558C165.392 146.581 166.666 146.269 167.645 146.862C168.623 147.456 168.935 148.73 168.342 149.707C166.913 151.933 164.433 153.26 161.787 153.213Z" fill="black"/>
<path d="M142.75 138.048C142.03 138.051 141.361 137.674 140.99 137.057C140.29 136.108 139.184 135.543 138.005 135.531C136.825 135.52 135.709 136.063 134.99 136.998C134.59 137.617 133.888 137.976 133.151 137.94C132.413 137.903 131.751 137.476 131.415 136.818C131.078 136.162 131.117 135.374 131.517 134.755C133.013 132.631 135.458 131.381 138.055 131.412C140.651 131.442 143.067 132.75 144.51 134.908C144.796 135.376 144.883 135.938 144.752 136.47C144.622 137.002 144.283 137.459 143.813 137.741C143.495 137.942 143.127 138.048 142.75 138.048Z" fill="black"/>
<path d="M191.186 138.107C190.461 138.107 189.789 137.726 189.414 137.104C188.715 136.155 187.609 135.591 186.43 135.579C185.25 135.567 184.133 136.11 183.414 137.045C183.036 137.708 182.321 138.11 181.557 138.086C180.793 138.064 180.103 137.621 179.765 136.935C179.428 136.249 179.495 135.434 179.941 134.814C181.433 132.685 183.879 131.43 186.479 131.461C189.078 131.492 191.494 132.805 192.934 134.967C193.314 135.605 193.325 136.398 192.963 137.045C192.599 137.693 191.917 138.098 191.174 138.107H191.186Z" fill="black"/>
<path d="M126.904 126.302C126.16 126.302 125.46 125.953 125.014 125.358C124.239 124.317 124.45 122.846 125.486 122.064C125.923 121.734 136.117 114.273 148.436 118.204C149.635 118.631 150.279 119.93 149.894 121.142C149.509 122.355 148.232 123.044 147.007 122.702C137.038 119.526 128.404 125.783 128.309 125.842C127.902 126.142 127.409 126.303 126.904 126.302Z" fill="black"/>
<path d="M196.793 126.314C196.285 126.316 195.79 126.151 195.387 125.842C195.246 125.747 186.623 119.538 176.69 122.702C175.876 122.992 174.969 122.815 174.324 122.24C173.679 121.666 173.399 120.786 173.595 119.945C173.79 119.104 174.429 118.437 175.26 118.204C187.58 114.273 197.773 121.746 198.21 122.064C199.024 122.675 199.356 123.736 199.034 124.699C198.712 125.664 197.81 126.314 196.793 126.314Z" fill="black"/>
<g style="mix-blend-mode:multiply" opacity="0.15">
<g style="mix-blend-mode:multiply" opacity="0.15">
<path fill-rule="evenodd" clip-rule="evenodd" d="M127.565 171.55C134.089 171.55 139.377 165.709 139.377 158.503C139.377 151.296 134.089 145.455 127.565 145.455C121.042 145.455 115.754 151.296 115.754 158.503C115.754 165.709 121.042 171.55 127.565 171.55ZM191.348 171.55C197.871 171.55 203.159 165.709 203.159 158.503C203.159 151.296 197.871 145.455 191.348 145.455C184.824 145.455 179.536 151.296 179.536 158.503C179.536 165.709 184.824 171.55 191.348 171.55Z" fill="#FF1300"/>
</g>
</g>
<g opacity="0.5">
<path opacity="0.5" fill-rule="evenodd" clip-rule="evenodd" d="M151.897 142.805C146.145 153.43 139.176 160.206 129.939 159.144C124.249 158.627 119.165 155.378 116.309 150.432C115.672 149.382 115.127 148.281 114.679 147.138C114.029 145.477 113.527 143.763 113.179 142.015C112.853 140.352 112.655 138.667 112.588 136.974L112.411 133.633C112.056 127.009 116.329 121.019 122.711 119.195C123.585 118.947 124.541 118.7 125.557 118.452C129.349 117.542 133.234 117.078 137.133 117.07C138.538 117.07 139.897 117.07 141.184 117.248C144.912 117.477 148.554 118.453 151.897 120.116C156.74 122.843 157.673 132.216 151.897 142.805Z" fill="white" fill-opacity="0.09"/>
<path opacity="0.5" fill-rule="evenodd" clip-rule="evenodd" d="M151.897 142.805C146.145 153.43 139.176 160.206 129.939 159.144C124.249 158.627 119.165 155.378 116.309 150.432C115.672 149.382 115.127 148.281 114.679 147.138C114.029 145.477 113.527 143.763 113.179 142.015C112.853 140.352 112.655 138.667 112.588 136.974L112.411 133.633C112.056 127.009 116.329 121.019 122.711 119.195C123.585 118.947 124.541 118.7 125.557 118.452C129.349 117.542 133.234 117.078 137.133 117.07C138.538 117.07 139.897 117.07 141.184 117.248C144.912 117.477 148.554 118.453 151.897 120.116C156.74 122.843 157.673 132.216 151.897 142.805Z" fill="white" fill-opacity="0.09"/>
<path opacity="0.5" fill-rule="evenodd" clip-rule="evenodd" d="M211.392 133.633L211.215 136.974C211.136 138.666 210.939 140.35 210.624 142.015C208.486 152.498 202.356 158.176 193.852 159.144C186.198 160.029 180.103 155.496 174.953 147.882C174.316 146.937 173.701 145.946 173.087 144.907C172.686 144.234 172.284 143.526 171.906 142.806C166.154 132.181 167.063 122.843 171.906 120.116C176.111 117.755 184.202 116.197 193.781 117.602C194.962 117.779 196.273 118.003 197.549 118.298L198.234 118.452C199.262 118.7 200.207 118.948 201.081 119.196C207.464 121.018 211.741 127.007 211.392 133.633Z" fill="white" fill-opacity="0.09"/>
<path opacity="0.5" fill-rule="evenodd" clip-rule="evenodd" d="M211.392 133.633L211.215 136.974C211.136 138.666 210.939 140.35 210.624 142.015C208.486 152.498 202.356 158.176 193.852 159.144C186.198 160.029 180.103 155.496 174.953 147.882C174.316 146.937 173.701 145.946 173.087 144.907C172.686 144.234 172.284 143.526 171.906 142.806C166.154 132.181 167.063 122.843 171.906 120.116C176.111 117.755 184.202 116.197 193.781 117.602C194.962 117.779 196.273 118.003 197.549 118.298L198.234 118.452C199.262 118.7 200.207 118.948 201.081 119.196C207.464 121.018 211.741 127.007 211.392 133.633Z" fill="white" fill-opacity="0.09"/>
</g>
<path opacity="0.5" d="M141.137 117.248L125.782 141.46L125.085 137.34L116.226 150.432C115.589 149.382 115.044 148.281 114.596 147.138L126.089 129.1L127.187 132.417L137.05 117.071C138.538 117.071 139.956 117.13 141.137 117.248Z" fill="#F9F9F9"/>
<path opacity="0.5" d="M197.549 118.298L184.072 139.548L183.363 135.428L174.965 147.847C174.327 146.902 173.713 145.911 173.099 144.872L184.367 127.164L185.477 130.481L193.746 117.496C195.009 117.779 196.273 118.003 197.549 118.298Z" fill="#F9F9F9"/>
<path fill-rule="evenodd" clip-rule="evenodd" d="M129.668 161.493C130.393 161.577 131.123 161.621 131.853 161.623C140.263 161.623 147.515 155.815 153.964 143.939C154.595 142.788 155.165 141.606 155.677 140.398C159.894 130.493 158.807 121.309 153.055 118.062C148.117 115.3 137.806 113.128 125.002 116.162C123.963 116.41 122.982 116.669 122.085 116.929C115.75 118.731 111.079 124.103 110.179 130.623C109.767 134.597 109.998 138.61 110.864 142.511C113.131 153.631 119.817 160.313 129.668 161.493ZM126.101 120.754C129.757 119.883 133.503 119.435 137.263 119.42C143.097 119.42 147.751 120.459 150.716 122.123C153.681 123.788 154.862 130.092 151.318 138.497C150.881 139.536 150.362 140.598 149.806 141.625C143.747 152.781 137.522 157.586 130.199 156.748C122.415 155.85 117.325 150.573 115.47 141.484C114.732 138.125 114.528 134.671 114.868 131.249C115.514 126.592 118.849 122.754 123.372 121.462C124.223 121.226 125.12 120.99 126.101 120.754Z" fill="#F9F9F9"/>
<path fill-rule="evenodd" clip-rule="evenodd" d="M169.815 143.915C176.264 155.815 183.517 161.623 191.927 161.623C192.658 161.612 193.387 161.562 194.112 161.47C203.974 160.336 210.66 153.596 212.928 142.463C213.27 140.687 213.48 138.888 213.554 137.08L213.731 133.739C214.167 126.008 209.174 119.011 201.718 116.905C200.809 116.646 199.829 116.386 198.766 116.138C185.974 113.116 175.674 115.265 170.725 118.039C164.193 121.722 163.803 132.842 169.815 143.915ZM193.568 156.807C186.257 157.657 180.021 152.84 173.961 141.684V141.649C168.988 132.476 169.508 124.154 173.052 122.147C177.599 119.609 186.942 118.18 197.679 120.718C198.659 120.955 199.581 121.191 200.419 121.439C205.758 122.937 209.336 127.947 209.018 133.48L208.841 136.821C208.772 138.406 208.592 139.983 208.297 141.543C206.443 150.632 201.352 155.909 193.568 156.807Z" fill="#F9F9F9"/>
<path d="M169.414 140.917H154.212C152.907 140.917 151.85 139.86 151.85 138.556C151.85 137.251 152.907 136.195 154.212 136.195H169.414C170.719 136.195 171.776 137.251 171.776 138.556C171.776 139.86 170.719 140.917 169.414 140.917Z" fill="#F9F9F9"/>
<path d="M167.914 130.918C167.497 130.907 167.09 130.789 166.732 130.576C161.346 127.317 157.555 130.257 157.389 130.387C156.381 131.208 154.898 131.06 154.073 130.056C153.246 129.052 153.388 127.569 154.389 126.739C154.649 126.527 160.827 121.498 169.177 126.527C170.088 127.067 170.529 128.147 170.254 129.17C169.978 130.193 169.056 130.907 167.996 130.918H167.914Z" fill="#F9F9F9"/>
<path d="M112.411 135.994C112.242 136.011 112.072 136.011 111.903 135.994L102.454 133.94C101.583 133.809 100.857 133.205 100.571 132.372C100.286 131.54 100.487 130.617 101.093 129.98C101.7 129.341 102.611 129.093 103.458 129.336L112.907 131.378C114.074 131.644 114.859 132.741 114.732 133.931C114.605 135.121 113.608 136.027 112.411 136.041V135.994Z" fill="#F9F9F9"/>
<path d="M211.404 136.171C210.099 136.308 208.931 135.363 208.794 134.058C208.657 132.754 209.603 131.586 210.908 131.449L220.357 129.407C221.182 129.228 222.04 129.501 222.608 130.126C223.175 130.75 223.367 131.631 223.11 132.434C222.853 133.238 222.186 133.843 221.361 134.023L211.912 136.065C211.746 136.119 211.576 136.155 211.404 136.171Z" fill="#F9F9F9"/>
<path fill-rule="evenodd" clip-rule="evenodd" d="M265.69 218.7C265.69 218.7 262.737 231.922 240.496 224.981C240.071 226.246 239.517 227.465 238.842 228.617C233.134 238.421 221.469 243.068 210.577 239.879L207.719 239.076C202.085 237.518 197.88 236.479 194.324 235.617L194.005 235.534H193.923H193.698V196.908C200.642 189.443 206.116 180.737 209.833 171.244L210.565 169.414C210.955 168.399 211.345 167.348 211.746 166.31C217.51 167.644 225.094 166.439 229.582 159.593C233.48 153.619 233.61 147.268 231.436 142.818C227.261 140.298 222.718 138.447 217.971 137.328C209.337 134.967 203.549 129.383 202.037 122.147C201.057 117.531 201.848 112.03 204.801 105.785C208.746 97.4271 206.278 91.5246 202.829 87.7116C199.592 84.1701 194.561 81.8917 189.186 81.1126C174.268 78.9876 165.752 82.9187 162.244 85.2089C161.143 85.9302 159.719 85.9302 158.618 85.2089C155.074 82.9305 146.594 78.9876 131.664 81.1126C126.266 81.8917 121.27 84.1465 118.033 87.7116C114.584 91.5246 112.127 97.4271 116.061 105.785C119.014 112.03 119.805 117.59 118.825 122.147C117.325 129.336 111.584 134.932 103.033 137.34C98.1306 138.483 93.4817 140.52 89.3193 143.349C87.394 147.752 87.6656 153.844 91.4099 159.593C95.8983 166.439 103.481 167.644 109.245 166.31C109.623 167.348 110.013 168.399 110.427 169.414L111.159 171.244C112.34 174.113 113.592 176.852 114.939 179.425C115.34 180.212 115.754 180.968 116.179 181.692C119.224 187.214 122.959 192.327 127.294 196.908V235.523C127.294 235.523 127.294 235.523 127.105 235.523C123.561 236.373 118.931 237.541 113.332 239.064L109.493 240.15C98.6099 243.352 86.9292 238.874 80.9803 229.219C80.1544 227.89 79.4809 226.472 78.9723 224.993C56.7429 231.934 53.7782 218.712 53.7782 218.712C36.6868 217.803 37.9743 204.759 38.7184 201.005C38.7659 200.799 38.9153 200.633 39.1142 200.563C39.3131 200.494 39.5338 200.531 39.6988 200.662C47.4708 206.813 63.759 195.397 52.2899 174.845C40.4783 153.596 58.8217 147.304 70.8223 141.72C85.7049 134.79 86.4609 116.079 86.4018 111.463C86.4018 110.283 86.4018 109.02 86.4018 107.792C88.1854 39.6532 159.563 41.6837 159.74 41.6837C159.917 41.6837 231.283 39.606 233.078 107.792C233.078 108.972 233.078 110.224 233.078 111.463C233.078 116.079 233.787 134.79 248.669 141.72C260.67 147.304 279.061 153.607 267.202 174.845C255.815 195.232 274.147 207.675 282.203 201.996C282.414 201.853 282.682 201.824 282.918 201.918C283.156 202.014 283.329 202.219 283.384 202.469C283.998 206.494 284.329 218.996 265.69 218.7Z" fill="#48201E"/>
<path fill-rule="evenodd" clip-rule="evenodd" d="M78.9133 230.435C83.8985 238.59 92.7862 243.545 102.347 243.503C104.962 243.55 107.571 243.228 110.096 242.547L113.923 241.472C118.588 240.162 123.077 239.005 127.553 237.931C128.737 237.776 129.619 236.763 129.609 235.57V196.955C129.61 196.349 129.377 195.766 128.959 195.326C124.756 190.884 121.136 185.926 118.187 180.57C117.793 179.854 117.399 179.122 117.006 178.374C115.695 175.883 114.513 173.204 113.332 170.406C113.28 170.277 113.229 170.151 113.178 170.025C112.985 169.549 112.798 169.087 112.612 168.612C112.246 167.655 111.868 166.652 111.513 165.672C111.158 164.475 109.931 163.761 108.714 164.043C103.812 165.164 97.233 164.244 93.3588 158.341C90.5004 153.95 89.7091 148.992 91.1973 144.954C94.9445 142.514 99.0838 140.737 103.434 139.701H103.635C113.037 137.045 119.403 130.859 121.104 122.725C122.238 117.389 121.246 111.381 118.163 104.864C115.34 98.8791 115.872 93.6731 119.746 89.376C123.041 86.1084 127.346 84.0493 131.959 83.5326C145.932 81.5493 153.834 85.02 157.295 87.2629C159.181 88.498 161.622 88.498 163.508 87.2629C166.284 85.445 174.304 81.4549 188.82 83.5207C193.443 84.0166 197.757 86.0787 201.045 89.3642C204.919 93.6613 205.463 98.8673 202.628 104.852C199.545 111.369 198.506 117.378 199.687 122.702C201.399 130.859 207.86 137.045 217.31 139.677H217.487C221.725 140.688 225.793 142.315 229.558 144.506C230.905 147.835 231.047 153.017 227.574 158.341C223.664 164.256 217.085 165.164 212.219 164.043C211.518 163.885 210.784 164.055 210.223 164.503C209.866 164.788 209.599 165.169 209.455 165.601C209.089 166.605 208.711 167.632 208.333 168.588L208.3 168.673C208.065 169.277 207.85 169.831 207.612 170.406C204.006 179.586 198.718 188.013 192.021 195.256C191.552 195.702 191.288 196.32 191.289 196.967V235.593C191.29 236.678 192.031 237.623 193.084 237.884H193.226H193.32H193.415H193.557H193.722C197.372 238.769 201.518 239.796 207.045 241.331L209.88 242.122C221.81 245.635 234.596 240.527 240.815 229.762L240.921 229.562C241.275 228.896 241.571 228.342 241.807 227.826C250.134 230.092 256.82 229.809 261.686 226.999C264.106 225.63 266.044 223.548 267.237 221.038C274.005 220.861 279.096 218.948 282.273 215.336C286.254 210.815 286.1 205.054 285.652 202.008C285.483 200.95 284.775 200.057 283.785 199.647C282.775 199.222 281.617 199.352 280.726 199.989C278.163 201.807 273.734 200.946 270.415 197.971C268.3 196.035 261.946 188.881 269.163 175.966C273.167 168.789 274.253 162.674 272.47 157.279C269.641 148.714 260.056 144.347 252.309 140.817L252.166 140.752L249.567 139.571C247.146 138.45 235.133 131.815 235.334 111.475V107.721C234.377 71.4914 213.991 54.8227 197.053 47.2202C173.203 36.7294 146.041 36.7294 122.191 47.2202C105.265 54.8227 84.8899 71.4914 83.9332 107.674V110.531V111.475C84.0159 115.04 83.5434 133.137 69.7593 139.559L67.1607 140.74L66.9818 140.821C59.2293 144.347 49.6813 148.692 46.8448 157.267C45.073 162.662 46.1479 168.777 50.1638 175.954C56.1759 186.732 53.9199 194.288 49.7977 197.829C47.0101 200.214 43.4667 200.591 41.1043 198.773C40.2827 198.123 39.1812 197.948 38.1987 198.313C37.233 198.665 36.524 199.499 36.3325 200.509C35.8246 203.082 35.0804 209.646 39.0609 214.758C41.8367 218.275 46.1479 220.353 52.0537 220.943C53.2416 223.506 55.2038 225.632 57.6642 227.023C62.5306 229.844 69.2632 230.116 77.5313 227.849C77.9464 228.735 78.4076 229.598 78.9133 230.435ZM80.0354 222.903C79.6954 222.715 79.3132 222.618 78.9251 222.62C78.7506 222.616 78.5763 222.631 78.4054 222.667C70.5979 225.111 64.3377 225.205 60.31 222.938C58.3693 221.927 56.8994 220.198 56.2114 218.122C55.9806 217.091 55.093 216.339 54.038 216.28C48.8173 216.009 45.0967 214.498 42.9942 211.794C41.3633 209.483 40.6095 206.666 40.8681 203.85C45.0793 205.339 49.7697 204.382 53.0577 201.359C61.5738 194.158 59.117 181.857 54.4869 173.593C51.156 167.632 50.1993 162.756 51.534 158.695C53.7427 152.049 62.0109 148.26 69.3104 144.966L71.9562 143.786C88.3743 136.183 88.9531 115.442 88.8941 111.392V110.46V107.78C90.5199 43.881 155.644 44.0239 159.663 44.0327C159.702 44.0327 159.736 44.0328 159.764 44.0328H159.894C159.921 44.0328 159.954 44.0327 159.993 44.0327C163.963 44.0239 229.079 43.8794 230.763 107.78V111.381C230.539 134.035 243.685 141.92 247.725 143.797L250.37 144.978L250.374 144.979C257.625 148.273 265.891 152.027 268.088 158.707C269.434 162.768 268.466 167.644 265.147 173.605C258.048 186.296 261.639 196.306 267.367 201.43C271.549 205.184 277.006 206.482 281.258 204.971C281.359 207.594 280.498 210.164 278.836 212.196C276.38 215.017 271.95 216.387 265.749 216.292C264.656 216.296 263.709 217.048 263.458 218.11C262.77 220.194 261.301 221.929 259.359 222.95C255.331 225.217 249.083 225.122 241.264 222.679C240.661 222.495 240.012 222.558 239.456 222.856C238.892 223.143 238.467 223.644 238.275 224.249C237.89 225.342 237.404 226.397 236.822 227.401C231.68 236.276 221.122 240.472 211.286 237.553L208.427 236.75C203.407 235.369 199.533 234.389 196.12 233.563V197.723C202.948 190.176 208.361 181.463 212.101 172L212.845 170.134C213.01 169.709 213.176 169.273 213.329 168.836C219.448 169.615 226.889 167.88 231.614 160.738C235.606 154.623 236.374 147.303 233.61 141.637C233.409 141.225 233.094 140.88 232.7 140.645C228.303 138.006 223.52 136.066 218.526 134.896C210.849 132.736 205.675 127.861 204.352 121.521C203.396 117.271 204.305 112.219 206.939 106.647C211.569 96.8486 208.215 90.0017 204.577 85.988C200.556 81.8738 195.235 79.2757 189.517 78.6335C173.949 76.4259 164.961 80.475 160.957 83.0958C160.636 83.3023 160.225 83.3023 159.905 83.0958C155.889 80.4868 146.83 76.4377 131.333 78.6453C125.619 79.2901 120.303 81.8881 116.285 85.9998C112.659 90.0135 109.293 96.8605 113.923 106.67C116.51 112.231 117.431 117.224 116.51 121.533C115.187 127.825 110.084 132.748 102.477 134.908C97.3066 136.124 92.4026 138.276 88.0082 141.259C87.6336 141.51 87.3385 141.862 87.1577 142.274C84.7127 147.894 85.5514 154.8 89.4374 160.761C93.4037 166.817 100.557 169.983 107.71 168.848L108.206 170.17C108.379 170.61 108.542 171.009 108.705 171.408C108.786 171.608 108.867 171.807 108.95 172.011C110.143 174.963 111.454 177.784 112.824 180.405C113.238 181.231 113.663 182.01 114.1 182.766C117.09 188.181 120.718 193.218 124.908 197.77V233.587C120.868 234.578 116.852 235.593 112.683 236.774L108.808 237.872C98.9534 240.781 88.3704 236.733 82.9764 227.991C82.2532 226.833 81.6629 225.598 81.2165 224.308C81.0284 223.7 80.6024 223.193 80.0354 222.903Z" fill="black"/>
<path fill-rule="evenodd" clip-rule="evenodd" d="M159.728 86.6255C159.929 86.7656 160.169 86.8398 160.413 86.8379C160.789 86.8142 161.131 86.6125 161.335 86.2949C161.34 86.2904 161.376 86.244 161.441 86.1605C162.549 84.7217 172.141 72.2717 183.304 73.3094C183.953 73.371 184.529 72.8955 184.592 72.2469C184.661 71.6022 184.197 71.0225 183.552 70.9483C170.382 69.697 159.882 84.3471 159.445 84.9728C159.262 85.229 159.188 85.5478 159.242 85.8581C159.295 86.1685 159.471 86.4447 159.728 86.6255ZM192.482 124.059C191.915 124.072 191.42 123.68 191.301 123.127C190.226 118.051 191.182 112.29 194.159 106.009C197.135 99.7291 196.604 93.9092 192.375 89.2344C188.91 85.7401 184.347 83.5435 179.454 83.0131C176.209 82.5401 172.928 82.3505 169.65 82.4465C169.228 82.4633 168.829 82.2539 168.603 81.8971C168.378 81.5403 168.36 81.0903 168.556 80.7166C168.752 80.3429 169.134 80.1023 169.555 80.0855C172.975 79.9752 176.399 80.1688 179.784 80.6639C185.224 81.2768 190.286 83.7401 194.124 87.6407C197.513 91.3947 200.644 97.793 196.285 107.013C193.545 112.809 192.647 118.062 193.616 122.619C193.682 122.926 193.624 123.247 193.453 123.51C193.283 123.774 193.013 123.959 192.706 124.024C192.633 124.045 192.557 124.057 192.482 124.059ZM128.156 124.059C128.238 124.071 128.321 124.071 128.404 124.059C128.977 124.098 129.495 123.72 129.632 123.162C130.719 118.086 129.75 112.325 126.786 106.057C123.738 99.5992 124.341 93.9918 128.569 89.2698C132.032 85.7731 136.596 83.5761 141.491 83.0485C144.736 82.5748 148.017 82.3852 151.295 82.4819C151.947 82.4819 152.476 81.9534 152.476 81.3014C152.476 80.6494 151.947 80.1209 151.295 80.1209C147.874 80.0047 144.451 80.1983 141.066 80.6993C135.627 81.3122 130.564 83.7755 126.727 87.6761C123.384 91.4301 120.218 97.8285 124.565 107.048C127.305 112.844 128.215 118.098 127.246 122.654C127.18 122.961 127.238 123.283 127.409 123.546C127.579 123.809 127.849 123.994 128.156 124.059ZM244.654 161.163C243.509 161.185 242.514 160.383 242.291 159.262C241.181 153.725 237.212 148.98 230.149 144.754C229.425 144.319 228.988 143.532 229.003 142.688C229.017 141.845 229.482 141.073 230.22 140.663C230.958 140.255 231.858 140.27 232.582 140.704C240.85 145.651 245.575 151.423 246.921 158.329C247.047 158.944 246.921 159.584 246.573 160.107C246.226 160.63 245.684 160.993 245.067 161.115C244.93 161.14 244.792 161.157 244.654 161.163ZM77.1769 162.945C75.8722 162.945 74.8146 161.889 74.8146 160.584C74.8146 153.501 79.1259 147.221 87.9846 141.295C89.0666 140.595 90.5102 140.891 91.229 141.96C91.9476 143.03 91.676 144.477 90.6185 145.214C83.1654 150.207 79.5393 155.236 79.5393 160.561C79.5455 161.191 79.2995 161.798 78.8557 162.245C78.4121 162.694 77.8076 162.945 77.1769 162.945ZM53.5656 221.061H53.8727C55.3373 221.061 60.9951 220.507 67.893 212.621C68.5226 212 68.7522 211.079 68.488 210.235C68.2236 209.391 67.5097 208.765 66.6382 208.614C65.7665 208.463 64.8833 208.811 64.3496 209.516C58.4438 216.245 54.0498 216.339 53.8609 216.339C52.5561 216.258 51.4324 217.248 51.3509 218.553C51.2693 219.857 52.2609 220.98 53.5656 221.061ZM78.9251 227.342C77.7655 227.339 76.7794 226.495 76.5973 225.351C76.4152 224.207 77.0912 223.1 78.1927 222.738C84.2569 220.405 89.4399 216.237 93.0163 210.815C93.4401 210.044 94.257 209.573 95.1362 209.592C96.0156 209.611 96.8118 210.116 97.2027 210.903C97.5934 211.691 97.5142 212.63 96.9968 213.341C92.8554 219.706 86.7768 224.573 79.6574 227.224C79.4216 227.304 79.174 227.344 78.9251 227.342ZM248.315 209.894C256.938 220.341 263.777 221.073 265.525 221.073L265.855 221.05C267.123 220.93 268.069 219.829 267.993 218.559C267.925 217.306 266.887 216.325 265.631 216.328H265.56C265.513 216.328 259.796 216.328 251.965 206.884C251.133 205.877 249.642 205.734 248.634 206.565C247.627 207.396 247.484 208.887 248.315 209.894ZM240.455 227.342C240.143 227.338 239.834 227.27 239.551 227.141C233.45 224.322 228.035 220.214 223.676 215.1C222.928 214.113 223.071 212.716 224.003 211.9C224.934 211.084 226.338 211.125 227.22 211.995C231.107 216.584 235.942 220.276 241.394 222.82C242.414 223.27 242.981 224.373 242.753 225.464C242.525 226.553 241.567 227.336 240.455 227.342ZM240.496 181.81C239.844 181.81 239.315 181.281 239.315 180.629C239.383 164.134 231.301 157.42 230.735 156.951C230.717 156.936 230.706 156.927 230.704 156.925C230.366 156.672 230.189 156.258 230.24 155.838C230.291 155.421 230.561 155.061 230.949 154.894C231.337 154.729 231.784 154.783 232.121 155.036C232.511 155.331 241.748 162.461 241.677 180.629C241.677 181.281 241.148 181.81 240.496 181.81ZM81.2401 181.81C81.2401 182.461 81.7689 182.99 82.4213 182.99C83.0736 182.99 83.6024 182.461 83.6024 181.81C83.5552 168.163 89.0004 161.257 91.3627 158.896C91.6622 158.596 91.7793 158.161 91.6697 157.751C91.5599 157.342 91.2403 157.023 90.831 156.913C90.4218 156.803 89.985 156.92 89.6854 157.22C87.1459 159.781 81.2401 167.289 81.2401 181.81ZM100.658 243.42H99.6544C98.3497 243.348 97.3502 242.234 97.422 240.929C97.4937 239.625 98.6096 238.626 99.9143 238.698C111.076 239.3 117.183 225.783 117.242 225.642C117.789 224.486 119.158 223.976 120.328 224.491C121.499 225.005 122.047 226.358 121.565 227.542L121.538 227.6C120.976 228.795 114.093 243.42 100.658 243.42ZM218.314 243.184H218.455V243.196C219.3 243.22 220.091 242.791 220.534 242.072C220.976 241.353 221.001 240.452 220.599 239.711C220.196 238.969 219.43 238.497 218.585 238.474C208.085 237.872 203.301 226.055 203.301 225.937C202.806 224.759 201.464 224.189 200.273 224.648C199.08 225.108 198.47 226.433 198.895 227.637C199.132 228.239 204.742 242.405 218.314 243.184Z" fill="black"/>
<path fill-rule="evenodd" clip-rule="evenodd" d="M17 349.461V347.513C17.3898 345.966 17.8032 344.455 18.1812 342.991C18.8426 340.63 19.5159 338.269 20.2009 336.109C20.4608 335.283 20.7207 334.468 20.9687 333.665C21.1577 333.075 21.3467 332.485 21.5357 331.942C22.0554 330.384 22.5751 328.873 23.0948 327.421C24.2681 324.162 25.4493 321.164 26.6383 318.425C26.9335 317.729 27.2288 317.044 27.5241 316.383L27.7013 315.993C28.3391 314.529 28.9888 313.16 29.6384 311.862C31.4849 307.994 33.6749 304.3 36.182 300.824C36.2529 300.718 36.3356 300.623 36.3946 300.529C37.0443 299.679 37.6703 298.911 38.2727 298.25L38.3435 298.168C38.9105 297.53 39.5247 296.916 40.1153 296.302C43.9243 292.473 48.1156 289.044 52.6238 286.067L53.9939 285.158C54.6869 284.702 55.3956 284.253 56.12 283.813C57.8681 282.727 59.6635 281.676 61.5179 280.649C64.5771 278.949 67.7426 277.344 70.9672 275.821C74.865 273.979 78.8337 272.279 82.7788 270.674L85.46 269.611C86.2278 269.304 87.0073 269.009 87.8223 268.726C91.2713 267.415 94.6967 266.211 98.0393 265.09C104.512 262.918 110.642 261.1 116.052 259.601C121.65 258.054 126.446 256.85 129.978 256C129.961 256.164 129.961 256.331 129.978 256.496C130.58 260.309 138.246 263.579 149.041 265.09C153.594 265.721 158.184 266.04 162.778 266.046H163.605C168.201 266.04 172.791 265.721 177.342 265.09C188.221 263.555 195.886 260.273 196.418 256.437C196.43 256.292 196.43 256.145 196.418 256C199.961 256.862 204.804 258.066 210.438 259.624C215.824 261.112 221.919 262.93 228.356 265.09C232.443 266.459 236.624 267.959 240.888 269.611C243.055 270.446 245.216 271.323 247.373 272.244L249.842 273.294L251.826 274.168C256.279 276.175 260.661 278.323 264.819 280.649C267.417 282.089 269.945 283.588 272.354 285.158L273.028 285.607C274.209 286.363 275.39 287.142 276.429 287.968C279.921 290.441 283.198 293.206 286.221 296.232C286.859 296.869 287.473 297.518 288.064 298.179C288.786 298.977 289.464 299.812 290.096 300.682V300.753C290.639 301.485 291.206 302.288 291.761 303.114C293.566 305.892 295.199 308.778 296.651 311.755C297.348 313.172 298.045 314.671 298.765 316.277C299.214 317.292 299.663 318.342 300.112 319.429C300.454 320.243 300.785 321.081 301.128 321.943C301.797 323.643 302.47 325.434 303.147 327.314C303.667 328.766 304.187 330.277 304.706 331.836C305.305 333.669 305.908 335.574 306.514 337.549C306.762 338.387 307.022 339.237 307.27 340.099C307.518 340.961 307.801 341.941 308.061 342.885C308.474 344.349 309.605 347.914 309.971 349.461C304.579 349.451 22.0309 349.498 17 349.461Z" fill="#B590CB"/>
</g>
</svg>
